<svg width="22" height="24" viewBox="0 0 22 24" fill="none" xmlns="http://www.w3.org/2000/svg">
<path d="M19.5009 10.4222H18.3308V7.07218C18.3308 3.17318 15.0059 0 10.9205 0C6.83506 0 3.51016 3.17318 3.51016 7.07218V10.4222H2.34011C1.04817 10.4222 0 11.4225 0 12.6555V21.5888C0 22.8217 1.04817 23.8221 2.34011 23.8221H19.5009C20.7928 23.8221 21.841 22.8217 21.841 21.5888V12.6555C21.841 11.4225 20.7928 10.4222 19.5009 10.4222ZM14.4307 10.4222H7.41034V7.07218C7.41034 5.22504 8.98504 3.7222 10.9205 3.7222C12.856 3.7222 14.4307 5.22504 14.4307 7.07218V10.4222Z" fill="#BBBBBB"/>
</svg>
