<svg width="840" height="466" viewBox="0 0 840 466" fill="none" xmlns="http://www.w3.org/2000/svg">
<path d="M377.5 7C364.667 12.8333 336 25.3 342 62.5C349.5 109 415.5 89 438.5 135.5C461.5 182 390.5 236 390.5 269C390.5 302 372.5 389.5 397 407.5C421.5 425.5 469 386 483.5 348.5C498 311 512.5 161 553 159C568.5 158.235 579.5 144 582 151C582 156.667 583 193.9 591 195.5C601 197.5 607.5 191 609.5 177C611.5 163 614.152 159.861 622.5 144C637.5 115.5 674 89.5 696 89.5C718 89.5 744.5 110 770 110C795.5 110 815.5 147 822 164.5C828.5 182 844.5 234 832.5 282C820.5 330 804.5 353.5 776.5 376C748.5 398.5 640 463.5 554 463.5C468 463.5 335.5 463.5 262.5 463.5C189.5 463.5 194 395 191.5 358.5C189 322 175 285.5 167.5 277.5C139.919 248.08 117.5 261 91.9999 239C66.4999 217 28.4999 208 14.4999 187C0.499944 166 -5.00006 118 27.9999 110C60.9999 102 85.9999 100.5 106 86" stroke="white" stroke-opacity="0.2" stroke-width="5" stroke-linejoin="round" stroke-dasharray="5 5"/>
<circle opacity="0.5" cx="378" cy="7" r="7" fill="white"/>
<circle opacity="0.5" cx="106" cy="85" r="7" fill="white"/>
<circle opacity="0.5" cx="192" cy="359" r="7" fill="white"/>
<circle opacity="0.5" cx="553" cy="159" r="7" fill="white"/>
<circle opacity="0.5" cx="582" cy="152" r="7" fill="white"/>
<circle opacity="0.5" cx="696" cy="89" r="7" fill="white"/>
<circle opacity="0.5" cx="770" cy="110" r="7" fill="white"/>
<circle opacity="0.5" cx="397" cy="408" r="7" fill="white"/>
<circle opacity="0.5" cx="439" cy="137" r="7" fill="white"/>
<circle opacity="0.5" cx="342" cy="63" r="7" fill="white"/>
</svg>
