<?xml version="1.0" encoding="UTF-8" standalone="no"?>
<svg
   xmlns:dc="http://purl.org/dc/elements/1.1/"
   xmlns:cc="http://creativecommons.org/ns#"
   xmlns:rdf="http://www.w3.org/1999/02/22-rdf-syntax-ns#"
   xmlns:svg="http://www.w3.org/2000/svg"
   xmlns="http://www.w3.org/2000/svg"
   xmlns:sodipodi="http://sodipodi.sourceforge.net/DTD/sodipodi-0.dtd"
   xmlns:inkscape="http://www.inkscape.org/namespaces/inkscape"
   width="354"
   height="32"
   viewBox="0 0 354 32"
   fill="none"
   version="1.1"
   id="svg997"
   sodipodi:docname="3FREE THINKER.svg"
   inkscape:version="1.0.1 (3bc2e813f5, 2020-09-07)">
  <metadata
     id="metadata1003">
    <rdf:RDF>
      <cc:Work
         rdf:about="">
        <dc:format>image/svg+xml</dc:format>
        <dc:type
           rdf:resource="http://purl.org/dc/dcmitype/StillImage" />
      </cc:Work>
    </rdf:RDF>
  </metadata>
  <defs
     id="defs1001" />
  <sodipodi:namedview
     pagecolor="#ffffff"
     bordercolor="#666666"
     borderopacity="1"
     objecttolerance="10"
     gridtolerance="10"
     guidetolerance="10"
     inkscape:pageopacity="0"
     inkscape:pageshadow="2"
     inkscape:window-width="1920"
     inkscape:window-height="986"
     id="namedview999"
     showgrid="false"
     inkscape:zoom="15.898305"
     inkscape:cx="280.02985"
     inkscape:cy="16.142191"
     inkscape:window-x="-11"
     inkscape:window-y="-11"
     inkscape:window-maximized="1"
     inkscape:current-layer="svg997" />
  <path
     d="M3.12001 29.44C2.56001 29.44 2.20001 28.92 2.04001 27.88C1.96001 27.4267 1.92001 27.0133 1.92001 26.64V25.76C1.84001 24.88 1.80001 24.0267 1.80001 23.2C1.69334 20.7467 1.60001 19.0133 1.52001 18C1.52001 17.5467 1.49334 17.0667 1.44001 16.56C1.38667 16.0267 1.34667 15.6533 1.32001 15.44V2.80001C1.32001 2.56001 1.41334 2.41335 1.60001 2.36002H1.84001L1.96001 2.40001C2.89334 2.40001 4.12001 2.36001 5.64001 2.28001C7.66667 2.22668 9.36001 2.20001 10.72 2.20001H11.12C11.28 2.22668 11.5467 2.24001 11.92 2.24001H12.64H13.04C13.84 2.24001 14.4667 2.25335 14.92 2.28001H19.04C19.5467 2.33335 20.3733 2.36002 21.52 2.36002C21.7333 2.36002 21.8933 2.37335 22 2.40001C22.2133 2.45335 22.4533 2.48001 22.72 2.48001C22.8267 2.48001 22.9333 2.44001 23.04 2.36002C23.6533 2.36002 23.9867 2.92001 24.04 4.04001C24.0933 4.41335 24.12 4.69335 24.12 4.88001C24.12 5.04001 24.0933 5.36001 24.04 5.84001C24.0133 6.26668 24 6.94668 24 7.88002C24 8.17335 23.7467 8.34668 23.24 8.40001C23.1067 8.42668 22.88 8.44002 22.56 8.44002H22H20.2L19 8.48001C18.7333 8.56001 18.32 8.60001 17.76 8.60001C17.2 8.60001 16.88 8.58668 16.8 8.56001C16.72 8.58668 16.6533 8.61335 16.6 8.64001C16.5733 8.66668 16.5467 8.68002 16.52 8.68002C16.52 8.73335 16.5067 8.78668 16.48 8.84002C16.4533 8.89335 16.44 8.97335 16.44 9.08001C16.4133 9.26668 16.3467 9.96001 16.24 11.16C16.2133 11.5067 16.2 12.12 16.2 13L16.16 13.08C16.16 13.1867 16.2133 13.3067 16.32 13.44H21.12C21.44 13.44 21.6667 13.48 21.8 13.56C21.96 13.64 22.08 13.7867 22.16 14C22.2667 14.32 22.32 15.1467 22.32 16.48V18.4V19.48C22.2667 19.72 22.1867 19.88 22.08 19.96C22 20.04 21.88 20.08 21.72 20.08C21.5067 20.08 21.3067 20.1067 21.12 20.16L19.32 20.28H18.52C18.12 20.28 17.8533 20.3067 17.72 20.36C17.5333 20.4133 17.28 20.4533 16.96 20.48H16.4C15.9733 20.48 15.68 20.5333 15.52 20.64C15.3867 20.6667 15.2533 20.8 15.12 21.04C15.12 23.4667 15.0933 25.12 15.04 26C15.0133 27.28 14.88 28.2133 14.64 28.8C14.16 28.8 13.4667 28.8267 12.56 28.88C12.1333 28.88 11.8533 28.9067 11.72 28.96H11.32H11.24C11.1333 28.96 11.0533 28.9467 11 28.92C10.9467 28.8933 10.8933 28.88 10.84 28.88L10.72 28.84C10.72 28.8133 10.6667 28.8 10.56 28.8C10.5333 28.8 10.48 28.8133 10.4 28.84C10.3467 28.8667 10.2933 28.9067 10.24 28.96H6.92001C6.89334 28.9867 6.82667 29 6.72001 29C6.64001 29.0267 6.52001 29.0667 6.36001 29.12L3.92001 29.4L3.12001 29.44Z"
     fill="#69BFBA"
     id="path953" />
  <path
     d="m 66.0453,29 c -0.1333,0 -0.3333,-0.0133 -0.6,-0.04 -0.2666,-0.0533 -0.5866,-0.0933 -0.96,-0.12 l -0.84,-0.2 c -0.1333,-0.0267 -0.24,-0.0533 -0.32,-0.08 -0.0533,-0.0533 -0.0667,-0.0933 -0.04,-0.12 0,-0.6933 -0.04,-1.6133 -0.12,-2.76 0,-0.4 -0.0133,-0.7467 -0.04,-1.04 -0.0266,-0.32 -0.0533,-0.5867 -0.08,-0.8 l -0.08,-1.72 c 0,-0.4533 -0.0266,-1.0267 -0.08,-1.72 l -0.04,-1.24 c 0,-1.0133 -0.0133,-1.8 -0.04,-2.36 -0.0266,-0.56 -0.04,-1.7333 -0.04,-3.52 0,-1.68 0.0134,-3.41332 0.04,-5.19998 0.0267,-1.78667 0.1067,-3.48001 0.24,-5.08001 0,-0.29333 0.32,-0.53333 0.96,-0.72 0.4,-0.05333 1.0667,-0.08 2,-0.08 2.16,0 3.7467,-0.04 4.76,-0.12 3.1467,-0.05333 5.52,-0.07999 7.12,-0.07999 h 1.76 c 2.1867,0.05333 3.8667,0.13333 5.04,0.23999 0.4267,0 0.7334,0.50667 0.92,1.52 0.08,0.18667 0.1734,0.66667 0.28,1.44 0.08,0.4 0.1867,0.89334 0.32,1.48 0.0267,0.16 0.0267,0.32 0,0.48001 0,0.13333 0,0.21333 0,0.23999 -0.0266,0.26667 -0.1733,0.4 -0.44,0.4 -0.1066,-0.02666 -0.2666,-0.04 -0.48,-0.04 -1.12,0 -2.4933,0.09334 -4.12,0.28 l -2.12,0.16 c -0.88,0.10667 -1.5733,0.17334 -2.08,0.2 -0.08,0 -0.1866,0.16 -0.32,0.48 -0.1066,0.34667 -0.2266,1.14669 -0.36,2.39999 l -0.08,1 c 0,0.3467 0.04,0.5733 0.12,0.68 0.08,0.08 0.2534,0.12 0.52,0.12 h 3.56 c 1.04,0 2.2267,0.0667 3.56,0.2 h 0.48 c 0.3467,0.08 0.56,0.2133 0.64,0.4 0.1067,0.16 0.1734,0.3333 0.2,0.52 l 0.16,3.56 v 0.12 c 0,0.4533 -0.48,0.72 -1.44,0.8 -0.56,0.1333 -1.6266,0.2 -3.2,0.2 -1.36,0 -2.24,-0.0133 -2.64,-0.04 -0.7733,0 -1.24,0.0133 -1.4,0.04 -0.2933,0.08 -0.48,0.24 -0.56,0.48 -0.08,0.2133 -0.12,0.5867 -0.12,1.12 0,0.3467 -0.0266,0.84 -0.08,1.48 -0.0266,0.32 -0.04,0.8267 -0.04,1.52 1.7334,0 3.0134,-0.0267 3.84,-0.08 0.9067,-0.08 2.1867,-0.12 3.84,-0.12 0.1067,0 0.2134,0.0933 0.32,0.28 0.1334,0.2667 0.3467,0.8667 0.64,1.8 0.16,0.5333 0.32,1.2 0.48,2 0.0534,0.1867 0.08,0.3867 0.08,0.6 0,0.56 -0.2666,0.84 -0.8,0.84 -0.6933,0 -1.6266,0.0267 -2.8,0.08 -0.6133,0.0533 -1.5733,0.08 -2.88,0.08 -2.8,0 -4.9066,0.0133 -6.32,0.04 z"
     fill="#69bfba"
     id="path957" />
  <path
     d="M145.379 29.04C145.006 29.04 144.726 28.7867 144.539 28.28C144.139 27.4 143.939 25.8 143.939 23.48C143.939 21.24 143.979 18.6667 144.059 15.76C144.086 14.8267 144.099 13.3867 144.099 11.44L143.979 11.28H139.539C139.192 11.28 138.912 11.0933 138.699 10.72C138.512 10.32 138.366 9.77335 138.259 9.08001C138.126 8.28001 138.059 7.13335 138.059 5.64001V5.08001C138.059 4.81335 138.072 4.60001 138.099 4.44001V3.84002V3.48001C138.099 3.32001 138.179 3.18668 138.339 3.08002C138.499 2.94668 138.686 2.85335 138.899 2.80001C139.166 2.72001 139.566 2.68001 140.099 2.68001H143.139C143.806 2.68001 144.312 2.69335 144.659 2.72001L146.139 2.76001H160.539C161.579 2.76001 162.259 2.77335 162.579 2.80001C162.712 2.82668 162.899 2.85335 163.139 2.88001C163.379 2.90668 163.552 2.96001 163.659 3.04001C163.846 3.12001 163.952 3.22668 163.979 3.36001C164.032 3.46668 164.059 3.64001 164.059 3.88001V10.48C164.059 10.7733 163.939 10.9733 163.699 11.08C163.539 11.1333 163.326 11.16 163.059 11.16H161.779H160.459C159.846 11.16 159.379 11.1333 159.059 11.08H157.859C157.619 11.08 157.486 11.1333 157.459 11.24C157.459 11.2667 157.446 11.3067 157.419 11.36C157.392 11.3867 157.379 11.4267 157.379 11.48V12.08V13.44C157.379 13.84 157.366 14.1467 157.339 14.36C157.339 15.1333 157.286 16.8267 157.179 19.44L157.099 20.64C157.046 21.76 156.992 22.5734 156.939 23.08V26.88C156.939 27.7867 156.752 28.36 156.379 28.6C156.032 28.7333 155.792 28.8133 155.659 28.84L154.659 28.88C153.619 28.88 152.886 28.9067 152.459 28.96L148.259 29C147.726 29.0267 146.766 29.04 145.379 29.04Z"
     fill="#69BFBA"
     id="path961" />
  <path
     d="M206.153 29.04C205.966 29.04 205.793 28.9733 205.633 28.84C205.473 28.68 205.353 28.48 205.273 28.24C205.166 27.76 205.086 27.2267 205.033 26.64C205.006 26.4533 204.993 26.2 204.993 25.88V25.36L205.033 20.4C205.033 18.72 205.073 17.0667 205.153 15.44V2.80001C205.153 2.53335 205.326 2.40001 205.673 2.40001C207.513 2.40001 208.886 2.38668 209.793 2.36002H213.793C213.873 2.36002 213.939 2.34668 213.993 2.32001C214.046 2.29335 214.113 2.28001 214.193 2.28001C214.539 2.22668 215.019 2.21335 215.633 2.24001C216.086 2.24001 216.566 2.28002 217.073 2.36002C217.233 2.46668 217.353 2.49335 217.433 2.44001C217.486 2.44001 217.593 2.41335 217.753 2.36002C218.153 2.36002 218.459 2.38668 218.673 2.44001C218.913 2.49335 219.099 2.61335 219.233 2.80001C219.366 3.04001 219.473 3.33335 219.553 3.68002C219.579 3.94668 219.593 4.50668 219.593 5.36001V13.16V13.76C219.566 13.9733 219.553 14.4533 219.553 15.2C219.553 16 219.526 16.6267 219.473 17.08L219.433 18.88C219.406 19.28 219.393 19.7867 219.393 20.4L219.353 21.04V23.6C219.353 25.2 219.286 26.56 219.153 27.68C219.153 28.0533 219.059 28.4267 218.873 28.8C218.393 28.8 217.699 28.8267 216.793 28.88C216.366 28.88 216.086 28.9067 215.953 28.96H215.553H215.433C215.246 28.96 215.153 28.9333 215.153 28.88C214.939 28.8267 214.819 28.8 214.793 28.8L214.473 28.96H210.793C210.766 28.9867 210.553 29 210.153 29H208.633H207.153L206.153 29.04Z"
     fill="#69BFBA"
     id="path965" />
  <path
     d="M279.733 29.32C279.573 29.1333 279.493 29.0267 279.493 29L275.293 24.16C275.213 24.08 275.08 23.92 274.893 23.68C274.707 23.44 274.533 23.24 274.373 23.08L273.773 22.48C273.587 22.3467 273.467 22.28 273.413 22.28C273.307 22.28 273.227 22.32 273.173 22.4C273.12 22.4534 273.093 22.52 273.093 22.6V23.16V24.04C273.093 24.4667 273.067 24.8 273.013 25.04V26.08C272.987 26.32 272.973 26.6133 272.973 26.96V27.48V28.08V28.24C272.973 28.5067 272.88 28.6533 272.693 28.68C272.56 28.7867 272.36 28.8133 272.093 28.76C270.707 28.8133 269.707 28.84 269.093 28.84L263.973 28.8H263.293H262.493C262.147 28.8 261.907 28.7867 261.773 28.76H261.493L259.693 28.6L259.573 28.28C259.547 28.28 259.533 28.1333 259.533 27.84C259.533 27.3867 259.52 27 259.493 26.68V25.08C259.44 24.68 259.413 24.08 259.413 23.28L259.333 20.2C259.307 19.5333 259.24 18.5333 259.133 17.2L259.093 16.2C259.04 15.2933 259.013 14.6267 259.013 14.2V13.8C259.067 13.64 259.093 13.4 259.093 13.08C259.12 12.7333 259.133 12.3333 259.133 11.88L259.093 11.08C259.093 10.8933 259.08 10.7467 259.053 10.64C259.027 10.5067 259.013 10.4133 259.013 10.36C259.013 10.3067 259.027 10.1467 259.053 9.88001C259.08 9.61335 259.093 9.34668 259.093 9.08001C259.12 8.76001 259.133 8.36001 259.133 7.88002V7.28001V6.48001C259.107 6.02668 259.093 5.36001 259.093 4.48001C259.04 4.29335 259.013 4.02668 259.013 3.68002V3.28001C258.933 2.66668 259.253 2.30668 259.973 2.20001C260.187 2.12001 260.493 2.08001 260.893 2.08001H261.773H266.213H269.493H271.613H272.893C273.267 2.08001 273.493 2.30668 273.573 2.76001C273.6 2.84001 273.613 3.01335 273.613 3.28001V3.88001C273.613 4.54668 273.587 5.54668 273.533 6.88001L273.493 7.96001C273.44 8.65335 273.413 9.13335 273.413 9.40001C273.733 9.40001 274.027 9.32002 274.293 9.16002C274.48 8.97335 274.573 8.88001 274.573 8.88001C274.627 8.85335 274.68 8.81335 274.733 8.76001C274.813 8.68001 274.88 8.61335 274.933 8.56001C275.04 8.50668 275.293 8.28002 275.693 7.88002C276.36 7.21335 277.453 6.18668 278.973 4.80001C280.44 3.41335 281.587 2.40001 282.413 1.76001C282.92 1.41335 283.24 1.22668 283.373 1.20001C283.427 1.20001 283.52 1.26668 283.653 1.40001C283.787 1.53335 283.88 1.62668 283.933 1.68001C283.933 1.68001 284.053 1.80001 284.293 2.04001C284.347 2.17335 284.413 2.25335 284.493 2.28001L284.733 2.56001C284.973 2.74668 285.133 2.90668 285.213 3.04001L285.693 3.48001C285.773 3.56001 285.84 3.64001 285.893 3.72001C285.947 3.77335 285.987 3.81335 286.013 3.84002C286.173 4.10668 286.6 4.68001 287.293 5.56001C287.827 6.17335 288.227 6.77335 288.493 7.36002V7.44001C288.493 7.81335 288.12 8.40001 287.373 9.20001L286.493 10.08C286.173 10.3733 285.947 10.6 285.813 10.76C285.787 10.76 285.747 10.7867 285.693 10.84C285.64 10.8933 285.573 10.96 285.493 11.04L283.893 12.28C283.893 12.28 283.627 12.5467 283.093 13.08L282.373 13.64C282.32 13.6667 282.213 13.7467 282.053 13.88C281.92 13.9867 281.8 14.0533 281.693 14.08C281.613 14.1333 281.52 14.2 281.413 14.28C281.307 14.3333 281.24 14.3867 281.213 14.44C281.16 14.4667 281.133 14.5867 281.133 14.8C281.133 15.2267 281.347 15.6267 281.773 16C281.96 16.2133 282.147 16.3733 282.333 16.48L282.893 16.96C283.453 17.52 283.733 17.8 283.733 17.8C284.267 18.2533 285.227 19.12 286.613 20.4C287.68 21.36 288.52 22.2267 289.133 23C289.4 23.4 289.533 23.6933 289.533 23.88C289.533 24.04 289.507 24.1733 289.453 24.28C289.427 24.3867 289.347 24.5067 289.213 24.64C288.68 25.0933 288.187 25.4267 287.733 25.64C287.28 25.88 286.84 26.1867 286.413 26.56C285.987 26.9067 285.573 27.2533 285.173 27.6C284.827 27.92 284.427 28.2133 283.973 28.48L283.173 28.88C283.173 28.88 283.053 28.96 282.813 29.12C282.573 29.28 282.4 29.4133 282.293 29.52C281.893 29.76 281.48 29.88 281.053 29.88C280.813 29.88 280.56 29.8267 280.293 29.72L279.733 29.32Z"
     fill="#69BFBA"
     id="path969" />
  <path
     d="M342.448 30.36C342.342 30.36 342.248 30.3467 342.168 30.32C341.768 30.08 341.435 29.8133 341.168 29.52C341.088 29.3867 341.035 29.32 341.008 29.32C340.982 29.2667 340.942 29.24 340.888 29.24L340.808 29.2C340.702 29.0933 340.648 29.04 340.648 29.04L337.248 24C337.088 23.6533 336.862 23.28 336.568 22.88C336.382 22.6933 336.222 22.4933 336.088 22.28C335.982 22.12 335.875 22.04 335.768 22.04C335.688 22.04 335.622 22.08 335.568 22.16C335.542 22.24 335.515 22.3467 335.488 22.48C335.408 23.2 335.368 24.1733 335.368 25.4C335.368 26.5734 335.302 27.52 335.168 28.24C335.088 28.5867 334.968 28.76 334.808 28.76H334.568C334.515 28.7333 334.462 28.72 334.408 28.72C334.382 28.6933 334.368 28.68 334.368 28.68C333.435 28.76 332.035 28.8533 330.168 28.96C328.355 29.0667 326.968 29.12 326.008 29.12C325.742 29.12 325.528 29.0933 325.368 29.04H324.488H323.768H323.408L321.968 28.56L321.848 28.24C321.848 28.2134 321.835 28.16 321.808 28.08C321.808 28 321.808 27.8933 321.808 27.76C321.808 27.6 321.782 27.3067 321.728 26.88C321.595 25.2533 321.542 24.6133 321.568 24.96C321.515 24.2667 321.422 23.0667 321.288 21.36L321.168 19.88C321.168 19.4 321.155 18.9733 321.128 18.6C321.102 18.2267 321.075 17.9067 321.048 17.64L320.968 16.76C320.888 15.6667 320.848 14.64 320.848 13.68C320.848 13.6533 320.848 13.6133 320.848 13.56C320.875 13.5067 320.888 13.4 320.888 13.24C320.942 13.08 320.968 12.8267 320.968 12.48L321.008 11.76L321.048 11.28C321.048 10.72 321.022 9.90668 320.968 8.84002C320.862 8.17335 320.808 7.32001 320.808 6.28001C320.808 4.78668 320.902 3.69335 321.088 3.00001C321.328 2.04001 321.728 1.56001 322.288 1.56001C325.302 1.56001 328.368 1.60001 331.488 1.68001C332.182 1.68001 333.222 1.70668 334.608 1.76001L336.168 1.80001C338.302 1.85335 339.782 1.88001 340.608 1.88001C344.048 2.04001 346.648 2.90668 348.408 4.48001C349.208 5.14668 349.795 5.94668 350.168 6.88001C350.568 7.81335 350.768 8.81335 350.768 9.88001C350.768 11.1067 350.542 12.24 350.088 13.28C349.715 14.1067 349.182 14.8667 348.488 15.56C347.822 16.2267 347.062 16.76 346.208 17.16C346.368 17.24 346.582 17.4133 346.848 17.68C346.955 17.8133 347.142 17.9867 347.408 18.2L347.968 18.6C348.048 18.7333 348.142 18.8667 348.248 19C348.355 19.1067 348.462 19.2267 348.568 19.36L350.448 21.68C351.302 22.7733 351.848 23.5733 352.088 24.08C352.275 24.4267 352.368 24.6933 352.368 24.88C352.368 25.1467 352.262 25.3867 352.048 25.6C351.835 25.8133 351.515 26.08 351.088 26.4C350.768 26.64 350.395 26.8667 349.968 27.08C349.568 27.2934 349.262 27.4933 349.048 27.68L347.568 28.48C347.035 28.7733 346.462 29.0267 345.848 29.24C345.822 29.24 345.782 29.2533 345.728 29.28C345.702 29.3067 345.648 29.3333 345.568 29.36C345.408 29.44 344.968 29.5867 344.248 29.8C344.115 29.88 343.888 29.9467 343.568 30C343.488 30.0533 343.395 30.0933 343.288 30.12C343.182 30.1467 343.102 30.16 343.048 30.16H342.848C342.822 30.2933 342.768 30.36 342.688 30.36H342.568H342.448ZM335.888 16.24C336.715 16.24 337.368 15.8267 337.848 15C338.302 14.2533 338.555 13.4 338.608 12.44C338.662 11.88 338.688 11.2133 338.688 10.44V10C338.688 9.38668 338.582 8.74668 338.368 8.08002C338.155 7.22668 337.715 6.61335 337.048 6.24002C336.755 6.00001 336.368 5.88001 335.888 5.88001C335.755 5.88001 335.648 6.04001 335.568 6.36001C335.328 6.94668 335.195 7.88001 335.168 9.16002C335.062 9.69335 335.008 10.32 335.008 11.04L334.968 12.24C334.915 13.7867 334.888 15.0667 334.888 16.08C334.888 16.1067 334.902 16.1333 334.928 16.16C334.955 16.1867 334.982 16.2 335.008 16.2L335.288 16.24H335.888Z"
     fill="#69BFBA"
     id="path973" />
  <path
     d="M3.12001 29.44C2.56001 29.44 2.20001 28.92 2.04001 27.88C1.96001 27.4267 1.92001 27.0133 1.92001 26.64V25.76C1.84001 24.88 1.80001 24.0267 1.80001 23.2C1.69334 20.7467 1.60001 19.0133 1.52001 18C1.52001 17.5467 1.49334 17.0667 1.44001 16.56C1.38667 16.0267 1.34667 15.6533 1.32001 15.44V2.80001C1.32001 2.56001 1.41334 2.41335 1.60001 2.36002H1.84001L1.96001 2.40001C2.89334 2.40001 4.12001 2.36001 5.64001 2.28001C7.66667 2.22668 9.36001 2.20001 10.72 2.20001H11.12C11.28 2.22668 11.5467 2.24001 11.92 2.24001H12.64H13.04C13.84 2.24001 14.4667 2.25335 14.92 2.28001H19.04C19.5467 2.33335 20.3733 2.36002 21.52 2.36002C21.7333 2.36002 21.8933 2.37335 22 2.40001C22.2133 2.45335 22.4533 2.48001 22.72 2.48001C22.8267 2.48001 22.9333 2.44001 23.04 2.36002C23.6533 2.36002 23.9867 2.92001 24.04 4.04001C24.0933 4.41335 24.12 4.69335 24.12 4.88001C24.12 5.04001 24.0933 5.36001 24.04 5.84001C24.0133 6.26668 24 6.94668 24 7.88002C24 8.17335 23.7467 8.34668 23.24 8.40001C23.1067 8.42668 22.88 8.44002 22.56 8.44002H22H20.2L19 8.48001C18.7333 8.56001 18.32 8.60001 17.76 8.60001C17.2 8.60001 16.88 8.58668 16.8 8.56001C16.72 8.58668 16.6533 8.61335 16.6 8.64001C16.5733 8.66668 16.5467 8.68002 16.52 8.68002C16.52 8.73335 16.5067 8.78668 16.48 8.84002C16.4533 8.89335 16.44 8.97335 16.44 9.08001C16.4133 9.26668 16.3467 9.96001 16.24 11.16C16.2133 11.5067 16.2 12.12 16.2 13L16.16 13.08C16.16 13.1867 16.2133 13.3067 16.32 13.44H21.12C21.44 13.44 21.6667 13.48 21.8 13.56C21.96 13.64 22.08 13.7867 22.16 14C22.2667 14.32 22.32 15.1467 22.32 16.48V18.4V19.48C22.2667 19.72 22.1867 19.88 22.08 19.96C22 20.04 21.88 20.08 21.72 20.08C21.5067 20.08 21.3067 20.1067 21.12 20.16L19.32 20.28H18.52C18.12 20.28 17.8533 20.3067 17.72 20.36C17.5333 20.4133 17.28 20.4533 16.96 20.48H16.4C15.9733 20.48 15.68 20.5333 15.52 20.64C15.3867 20.6667 15.2533 20.8 15.12 21.04C15.12 23.4667 15.0933 25.12 15.04 26C15.0133 27.28 14.88 28.2133 14.64 28.8C14.16 28.8 13.4667 28.8267 12.56 28.88C12.1333 28.88 11.8533 28.9067 11.72 28.96H11.32H11.24C11.1333 28.96 11.0533 28.9467 11 28.92C10.9467 28.8933 10.8933 28.88 10.84 28.88L10.72 28.84C10.72 28.8133 10.6667 28.8 10.56 28.8C10.5333 28.8 10.48 28.8133 10.4 28.84C10.3467 28.8667 10.2933 28.9067 10.24 28.96H6.92001C6.89334 28.9867 6.82667 29 6.72001 29C6.64001 29.0267 6.52001 29.0667 6.36001 29.12L3.92001 29.4L3.12001 29.44Z"
     stroke="white"
     stroke-width="2"
     stroke-linejoin="round"
     id="path975" />
  <path
     d="M49.3234 30.36C49.2168 30.36 49.1234 30.3467 49.0434 30.32C48.6434 30.08 48.3101 29.8133 48.0434 29.52C47.9634 29.3867 47.9101 29.32 47.8834 29.32C47.8568 29.2667 47.8168 29.24 47.7634 29.24L47.6834 29.2C47.5768 29.0933 47.5234 29.04 47.5234 29.04L44.1234 24C43.9634 23.6533 43.7368 23.28 43.4434 22.88C43.2568 22.6933 43.0968 22.4933 42.9634 22.28C42.8568 22.12 42.7501 22.04 42.6434 22.04C42.5634 22.04 42.4968 22.08 42.4434 22.16C42.4168 22.24 42.3901 22.3467 42.3634 22.48C42.2834 23.2 42.2434 24.1733 42.2434 25.4C42.2434 26.5734 42.1768 27.52 42.0434 28.24C41.9634 28.5867 41.8434 28.76 41.6834 28.76H41.4434C41.3901 28.7333 41.3368 28.72 41.2834 28.72C41.2568 28.6933 41.2434 28.68 41.2434 28.68C40.3101 28.76 38.9101 28.8533 37.0434 28.96C35.2301 29.0667 33.8434 29.12 32.8834 29.12C32.6168 29.12 32.4034 29.0933 32.2434 29.04H31.3634H30.6434H30.2834L28.8434 28.56L28.7234 28.24C28.7234 28.2134 28.7101 28.16 28.6834 28.08C28.6834 28 28.6834 27.8933 28.6834 27.76C28.6834 27.6 28.6568 27.3067 28.6034 26.88C28.4701 25.2533 28.4168 24.6133 28.4434 24.96C28.3901 24.2667 28.2968 23.0667 28.1634 21.36L28.0434 19.88C28.0434 19.4 28.0301 18.9733 28.0034 18.6C27.9768 18.2267 27.9501 17.9067 27.9234 17.64L27.8434 16.76C27.7634 15.6667 27.7234 14.64 27.7234 13.68C27.7234 13.6533 27.7234 13.6133 27.7234 13.56C27.7501 13.5067 27.7634 13.4 27.7634 13.24C27.8168 13.08 27.8434 12.8267 27.8434 12.48L27.8834 11.76L27.9234 11.28C27.9234 10.72 27.8968 9.90668 27.8434 8.84002C27.7368 8.17335 27.6834 7.32001 27.6834 6.28001C27.6834 4.78668 27.7768 3.69335 27.9634 3.00001C28.2034 2.04001 28.6034 1.56001 29.1634 1.56001C32.1768 1.56001 35.2434 1.60001 38.3634 1.68001C39.0568 1.68001 40.0968 1.70668 41.4834 1.76001L43.0434 1.80001C45.1768 1.85335 46.6568 1.88001 47.4834 1.88001C50.9234 2.04001 53.5234 2.90668 55.2834 4.48001C56.0834 5.14668 56.6701 5.94668 57.0434 6.88001C57.4434 7.81335 57.6434 8.81335 57.6434 9.88001C57.6434 11.1067 57.4168 12.24 56.9634 13.28C56.5901 14.1067 56.0568 14.8667 55.3634 15.56C54.6968 16.2267 53.9368 16.76 53.0834 17.16C53.2434 17.24 53.4568 17.4133 53.7234 17.68C53.8301 17.8133 54.0168 17.9867 54.2834 18.2L54.8434 18.6C54.9234 18.7333 55.0168 18.8667 55.1234 19C55.2301 19.1067 55.3368 19.2267 55.4434 19.36L57.3234 21.68C58.1768 22.7733 58.7234 23.5733 58.9634 24.08C59.1501 24.4267 59.2434 24.6933 59.2434 24.88C59.2434 25.1467 59.1368 25.3867 58.9234 25.6C58.7101 25.8133 58.3901 26.08 57.9634 26.4C57.6434 26.64 57.2701 26.8667 56.8434 27.08C56.4434 27.2934 56.1368 27.4933 55.9234 27.68L54.4434 28.48C53.9101 28.7733 53.3368 29.0267 52.7234 29.24C52.6968 29.24 52.6568 29.2533 52.6034 29.28C52.5768 29.3067 52.5234 29.3333 52.4434 29.36C52.2834 29.44 51.8434 29.5867 51.1234 29.8C50.9901 29.88 50.7634 29.9467 50.4434 30C50.3634 30.0533 50.2701 30.0933 50.1634 30.12C50.0568 30.1467 49.9768 30.16 49.9234 30.16H49.7234C49.6968 30.2933 49.6434 30.36 49.5634 30.36H49.4434H49.3234ZM42.7634 16.24C43.5901 16.24 44.2434 15.8267 44.7234 15C45.1768 14.2533 45.4301 13.4 45.4834 12.44C45.5368 11.88 45.5634 11.2133 45.5634 10.44V10C45.5634 9.38668 45.4568 8.74668 45.2434 8.08002C45.0301 7.22668 44.5901 6.61335 43.9234 6.24002C43.6301 6.00001 43.2434 5.88001 42.7634 5.88001C42.6301 5.88001 42.5234 6.04001 42.4434 6.36001C42.2034 6.94668 42.0701 7.88001 42.0434 9.16002C41.9368 9.69335 41.8834 10.32 41.8834 11.04L41.8434 12.24C41.7901 13.7867 41.7634 15.0667 41.7634 16.08C41.7634 16.1067 41.7768 16.1333 41.8034 16.16C41.8301 16.1867 41.8568 16.2 41.8834 16.2L42.1634 16.24H42.7634Z"
     stroke="white"
     stroke-width="2"
     stroke-linejoin="round"
     id="path977" />
  <path
     d="M66.0453 29C65.912 29 65.712 28.9867 65.4453 28.96C65.1787 28.9067 64.8587 28.8667 64.4853 28.84L63.6453 28.64C63.512 28.6133 63.4053 28.5867 63.3253 28.56C63.272 28.5067 63.2586 28.4667 63.2853 28.44C63.2853 27.7467 63.2453 26.8267 63.1653 25.68C63.1653 25.28 63.152 24.9333 63.1253 24.64C63.0987 24.32 63.072 24.0533 63.0453 23.84L62.9653 22.12C62.9653 21.6667 62.9387 21.0933 62.8853 20.4L62.8453 19.16C62.8453 18.1467 62.832 17.36 62.8053 16.8C62.7787 16.24 62.7653 15.0667 62.7653 13.28C62.7653 11.6 62.7787 9.86668 62.8053 8.08002C62.832 6.29335 62.912 4.60001 63.0453 3.00001C63.0453 2.70668 63.3653 2.46668 64.0053 2.28001C64.4053 2.22668 65.072 2.20001 66.0053 2.20001C68.1653 2.20001 69.752 2.16001 70.7653 2.08001C73.912 2.02668 76.2853 2.00002 77.8853 2.00002H79.6453C81.832 2.05335 83.512 2.13335 84.6853 2.24001C85.112 2.24001 85.4187 2.74668 85.6053 3.76001C85.6853 3.94668 85.7787 4.42668 85.8853 5.20001C85.9653 5.60001 86.072 6.09335 86.2053 6.68001C86.232 6.84001 86.232 7.00001 86.2053 7.16002C86.2053 7.29335 86.2053 7.37335 86.2053 7.40001C86.1787 7.66668 86.032 7.80001 85.7653 7.80001C85.6587 7.77335 85.4987 7.76001 85.2853 7.76001C84.1653 7.76001 82.792 7.85335 81.1653 8.04001L79.0453 8.20001C78.1653 8.30668 77.472 8.37335 76.9653 8.40001C76.8853 8.40001 76.7787 8.56001 76.6453 8.88001C76.5387 9.22668 76.4187 10.0267 76.2853 11.28L76.2053 12.28C76.2053 12.6267 76.2453 12.8533 76.3253 12.96C76.4053 13.04 76.5787 13.08 76.8453 13.08H80.4053C81.4453 13.08 82.632 13.1467 83.9653 13.28H84.4453C84.792 13.36 85.0053 13.4933 85.0853 13.68C85.192 13.84 85.2587 14.0133 85.2853 14.2L85.4453 17.76V17.88C85.4453 18.3333 84.9653 18.6 84.0053 18.68C83.4453 18.8133 82.3787 18.88 80.8053 18.88C79.4453 18.88 78.5653 18.8667 78.1653 18.84C77.392 18.84 76.9253 18.8533 76.7653 18.88C76.472 18.96 76.2853 19.12 76.2053 19.36C76.1253 19.5733 76.0853 19.9467 76.0853 20.48C76.0853 20.8267 76.0587 21.32 76.0053 21.96C75.9787 22.28 75.9653 22.7867 75.9653 23.48C77.6987 23.48 78.9787 23.4533 79.8053 23.4C80.712 23.32 81.992 23.28 83.6453 23.28C83.752 23.28 83.8587 23.3733 83.9653 23.56C84.0987 23.8267 84.312 24.4267 84.6053 25.36C84.7653 25.8933 84.9253 26.56 85.0853 27.36C85.1387 27.5467 85.1653 27.7467 85.1653 27.96C85.1653 28.52 84.8987 28.8 84.3653 28.8C83.672 28.8 82.7387 28.8267 81.5653 28.88C80.952 28.9333 79.992 28.96 78.6853 28.96C75.8853 28.96 73.7787 28.9733 72.3653 29H66.0453Z"
     stroke="white"
     stroke-width="2"
     stroke-linejoin="round"
     id="path979" />
  <path
     d="M93.7797 29C93.6464 29 93.4464 28.9867 93.1797 28.96C92.913 28.9067 92.593 28.8667 92.2197 28.84L91.3797 28.64C91.2464 28.6133 91.1397 28.5867 91.0597 28.56C91.0064 28.5067 90.993 28.4667 91.0197 28.44C91.0197 27.7467 90.9797 26.8267 90.8997 25.68C90.8997 25.28 90.8864 24.9333 90.8597 24.64C90.833 24.32 90.8064 24.0533 90.7797 23.84L90.6997 22.12C90.6997 21.6667 90.673 21.0933 90.6197 20.4L90.5797 19.16C90.5797 18.1467 90.5664 17.36 90.5397 16.8C90.513 16.24 90.4997 15.0667 90.4997 13.28C90.4997 11.6 90.513 9.86668 90.5397 8.08002C90.5664 6.29335 90.6464 4.60001 90.7797 3.00001C90.7797 2.70668 91.0997 2.46668 91.7397 2.28001C92.1397 2.22668 92.8064 2.20001 93.7397 2.20001C95.8997 2.20001 97.4864 2.16001 98.4997 2.08001C101.646 2.02668 104.02 2.00002 105.62 2.00002H107.38C109.566 2.05335 111.246 2.13335 112.42 2.24001C112.846 2.24001 113.153 2.74668 113.34 3.76001C113.42 3.94668 113.513 4.42668 113.62 5.20001C113.7 5.60001 113.806 6.09335 113.94 6.68001C113.966 6.84001 113.966 7.00001 113.94 7.16002C113.94 7.29335 113.94 7.37335 113.94 7.40001C113.913 7.66668 113.766 7.80001 113.5 7.80001C113.393 7.77335 113.233 7.76001 113.02 7.76001C111.9 7.76001 110.526 7.85335 108.9 8.04001L106.78 8.20001C105.9 8.30668 105.206 8.37335 104.7 8.40001C104.62 8.40001 104.513 8.56001 104.38 8.88001C104.273 9.22668 104.153 10.0267 104.02 11.28L103.94 12.28C103.94 12.6267 103.98 12.8533 104.06 12.96C104.14 13.04 104.313 13.08 104.58 13.08H108.14C109.18 13.08 110.366 13.1467 111.7 13.28H112.18C112.526 13.36 112.74 13.4933 112.82 13.68C112.926 13.84 112.993 14.0133 113.02 14.2L113.18 17.76V17.88C113.18 18.3333 112.7 18.6 111.74 18.68C111.18 18.8133 110.113 18.88 108.54 18.88C107.18 18.88 106.3 18.8667 105.9 18.84C105.126 18.84 104.66 18.8533 104.5 18.88C104.206 18.96 104.02 19.12 103.94 19.36C103.86 19.5733 103.82 19.9467 103.82 20.48C103.82 20.8267 103.793 21.32 103.74 21.96C103.713 22.28 103.7 22.7867 103.7 23.48C105.433 23.48 106.713 23.4533 107.54 23.4C108.446 23.32 109.726 23.28 111.38 23.28C111.486 23.28 111.593 23.3733 111.7 23.56C111.833 23.8267 112.046 24.4267 112.34 25.36C112.5 25.8933 112.66 26.56 112.82 27.36C112.873 27.5467 112.9 27.7467 112.9 27.96C112.9 28.52 112.633 28.8 112.1 28.8C111.406 28.8 110.473 28.8267 109.3 28.88C108.686 28.9333 107.726 28.96 106.42 28.96C103.62 28.96 101.513 28.9733 100.1 29H93.7797Z"
     stroke="white"
     stroke-width="2"
     stroke-linejoin="round"
     id="path981" />
  <path
     d="M145.379 29.04C145.006 29.04 144.726 28.7867 144.539 28.28C144.139 27.4 143.939 25.8 143.939 23.48C143.939 21.24 143.979 18.6667 144.059 15.76C144.086 14.8267 144.099 13.3867 144.099 11.44L143.979 11.28H139.539C139.192 11.28 138.912 11.0933 138.699 10.72C138.512 10.32 138.366 9.77335 138.259 9.08001C138.126 8.28001 138.059 7.13335 138.059 5.64001V5.08001C138.059 4.81335 138.072 4.60001 138.099 4.44001V3.84002V3.48001C138.099 3.32001 138.179 3.18668 138.339 3.08002C138.499 2.94668 138.686 2.85335 138.899 2.80001C139.166 2.72001 139.566 2.68001 140.099 2.68001H143.139C143.806 2.68001 144.312 2.69335 144.659 2.72001L146.139 2.76001H160.539C161.579 2.76001 162.259 2.77335 162.579 2.80001C162.712 2.82668 162.899 2.85335 163.139 2.88001C163.379 2.90668 163.552 2.96001 163.659 3.04001C163.846 3.12001 163.952 3.22668 163.979 3.36001C164.032 3.46668 164.059 3.64001 164.059 3.88001V10.48C164.059 10.7733 163.939 10.9733 163.699 11.08C163.539 11.1333 163.326 11.16 163.059 11.16H161.779H160.459C159.846 11.16 159.379 11.1333 159.059 11.08H157.859C157.619 11.08 157.486 11.1333 157.459 11.24C157.459 11.2667 157.446 11.3067 157.419 11.36C157.392 11.3867 157.379 11.4267 157.379 11.48V12.08V13.44C157.379 13.84 157.366 14.1467 157.339 14.36C157.339 15.1333 157.286 16.8267 157.179 19.44L157.099 20.64C157.046 21.76 156.992 22.5734 156.939 23.08V26.88C156.939 27.7867 156.752 28.36 156.379 28.6C156.032 28.7333 155.792 28.8133 155.659 28.84L154.659 28.88C153.619 28.88 152.886 28.9067 152.459 28.96L148.259 29C147.726 29.0267 146.766 29.04 145.379 29.04Z"
     stroke="white"
     stroke-width="2"
     stroke-linejoin="round"
     id="path983" />
  <path
     d="M176.005 29.24C174.325 29.24 173.072 29.2133 172.245 29.16C170.965 29.1067 169.845 28.9467 168.885 28.68C168.779 28.68 168.672 28.52 168.565 28.2C168.485 27.96 168.445 27.7733 168.445 27.64L167.685 13.08V12.28C167.685 12.0933 167.699 11.76 167.725 11.28C167.752 10.8 167.765 10.16 167.765 9.36001L167.845 7.28001C167.845 6.74668 167.859 6.34668 167.885 6.08002C167.885 5.28001 167.912 4.50668 167.965 3.76001C167.965 3.52001 167.965 3.36001 167.965 3.28001C167.992 3.17335 168.005 3.10668 168.005 3.08002C168.059 3.05335 168.152 2.98668 168.285 2.88001C168.445 2.74668 168.579 2.64001 168.685 2.56001C168.952 2.32001 169.339 2.20001 169.845 2.20001H172.165H172.805C173.072 2.22668 173.565 2.24001 174.285 2.24001C175.059 2.24001 175.685 2.25335 176.165 2.28001H178.005H179.485H180.085C180.779 2.28001 181.245 2.38668 181.485 2.60001C181.805 2.84001 181.965 3.30668 181.965 4.00002V4.40001C181.965 4.50668 181.952 4.61335 181.925 4.72001C181.899 4.82668 181.885 4.93335 181.885 5.04001L181.805 5.68002L181.765 6.16001C181.765 6.26668 181.792 6.37335 181.845 6.48001C181.872 6.58668 181.885 6.72001 181.885 6.88001C181.885 7.60001 181.872 8.12002 181.845 8.44002L181.805 10.08H182.845C183.192 10.16 183.565 10.2 183.965 10.2C184.499 10.2533 184.872 10.28 185.085 10.28C185.325 10.3333 185.685 10.36 186.165 10.36L186.205 7.64001C186.232 7.40001 186.245 7.05335 186.245 6.60002L186.285 4.96001V4.64001C186.285 4.21335 186.299 3.84001 186.325 3.52001C186.352 3.17335 186.405 2.93335 186.485 2.80001C186.645 2.58668 186.832 2.48001 187.045 2.48001C187.205 2.42668 187.579 2.40001 188.165 2.40001L189.245 2.36002C190.019 2.36002 190.659 2.33335 191.165 2.28001H193.445C194.512 2.28001 195.285 2.26668 195.765 2.24001C196.699 2.24001 197.339 2.22668 197.685 2.20001H198.765C199.405 2.20001 199.832 2.28001 200.045 2.44001C200.205 2.54668 200.312 2.70668 200.365 2.92002C200.419 3.10668 200.445 3.38668 200.445 3.76001C200.445 4.80001 200.419 6.20001 200.365 7.96001C200.259 9.66668 200.205 11.04 200.205 12.08C200.205 12.24 200.232 12.3733 200.285 12.48C200.285 12.5867 200.299 12.68 200.325 12.76C200.352 12.8133 200.365 12.8533 200.365 12.88L199.365 28.08C199.365 28.2134 199.272 28.4 199.085 28.64C198.845 28.88 198.632 29 198.445 29H187.445C187.365 29 187.285 28.9333 187.205 28.8C187.125 28.6667 187.059 28.4933 187.005 28.28C186.979 28.1467 186.939 27.9733 186.885 27.76C186.859 27.52 186.832 27.2267 186.805 26.88L186.365 19.48H186.085C185.365 19.48 184.792 19.4667 184.365 19.44C183.352 19.3867 182.725 19.36 182.485 19.36H182.165C181.925 19.36 181.805 19.5867 181.805 20.04C181.805 23.3467 181.792 25.4533 181.765 26.36C181.765 26.5733 181.725 27.08 181.645 27.88C181.592 28.4933 181.365 28.8667 180.965 29L180.365 29.04C178.285 29.1467 176.832 29.2134 176.005 29.24Z"
     stroke="white"
     stroke-width="2"
     stroke-linejoin="round"
     id="path985" />
  <path
     d="M206.153 29.04C205.966 29.04 205.793 28.9733 205.633 28.84C205.473 28.68 205.353 28.48 205.273 28.24C205.166 27.76 205.086 27.2267 205.033 26.64C205.006 26.4533 204.993 26.2 204.993 25.88V25.36L205.033 20.4C205.033 18.72 205.073 17.0667 205.153 15.44V2.80001C205.153 2.53335 205.326 2.40001 205.673 2.40001C207.513 2.40001 208.886 2.38668 209.793 2.36002H213.793C213.873 2.36002 213.939 2.34668 213.993 2.32001C214.046 2.29335 214.113 2.28001 214.193 2.28001C214.539 2.22668 215.019 2.21335 215.633 2.24001C216.086 2.24001 216.566 2.28002 217.073 2.36002C217.233 2.46668 217.353 2.49335 217.433 2.44001C217.486 2.44001 217.593 2.41335 217.753 2.36002C218.153 2.36002 218.459 2.38668 218.673 2.44001C218.913 2.49335 219.099 2.61335 219.233 2.80001C219.366 3.04001 219.473 3.33335 219.553 3.68002C219.579 3.94668 219.593 4.50668 219.593 5.36001V13.16V13.76C219.566 13.9733 219.553 14.4533 219.553 15.2C219.553 16 219.526 16.6267 219.473 17.08L219.433 18.88C219.406 19.28 219.393 19.7867 219.393 20.4L219.353 21.04V23.6C219.353 25.2 219.286 26.56 219.153 27.68C219.153 28.0533 219.059 28.4267 218.873 28.8C218.393 28.8 217.699 28.8267 216.793 28.88C216.366 28.88 216.086 28.9067 215.953 28.96H215.553H215.433C215.246 28.96 215.153 28.9333 215.153 28.88C214.939 28.8267 214.819 28.8 214.793 28.8L214.473 28.96H210.793C210.766 28.9867 210.553 29 210.153 29H208.633H207.153L206.153 29.04Z"
     stroke="white"
     stroke-width="2"
     stroke-linejoin="round"
     id="path987" />
  <path
     d="M229.292 29.12C229.025 29.12 228.798 29.0933 228.612 29.04H227.812H227.172H226.812L225.012 28.6L224.892 28.28C224.865 28.28 224.852 28.1333 224.852 27.84C224.798 27.04 224.772 26.12 224.772 25.08C224.772 24.3333 224.745 23.7333 224.692 23.28C224.692 22.5333 224.678 21.9733 224.652 21.6V20.2C224.518 18.9733 224.438 17.6267 224.412 16.16C224.385 14.6933 224.372 13.2667 224.372 11.88L224.452 7.80001C224.478 7.34668 224.492 6.65335 224.492 5.72001C224.492 4.78668 224.478 4.09335 224.452 3.64001C224.372 3.02668 224.545 2.57335 224.972 2.28001C225.238 2.14668 225.705 2.08001 226.372 2.08001C227.358 2.08001 228.625 2.05335 230.172 2.00002L231.052 1.92001C232.652 1.81335 233.652 1.76001 234.052 1.76001C234.425 1.76001 234.692 1.77335 234.852 1.80001C235.225 1.82668 235.478 1.88001 235.612 1.96001C235.745 2.04001 235.865 2.17335 235.972 2.36002C236.105 2.54668 236.198 2.69335 236.252 2.80001C236.572 3.22668 236.892 3.68001 237.212 4.16001C237.692 4.88001 238.078 5.44001 238.372 5.84001L241.012 9.88001L242.292 11.8C242.292 11.1067 242.318 10.56 242.372 10.16V6.44001L242.492 3.60001C242.518 3.38668 242.545 3.24002 242.572 3.16002C242.598 3.08001 242.638 3.02668 242.692 3.00001C242.745 2.94668 242.785 2.90668 242.812 2.88001C243.132 2.61335 243.452 2.41335 243.772 2.28001C244.038 2.22668 244.252 2.20001 244.412 2.20001H246.692H247.172C247.385 2.22668 247.758 2.24001 248.292 2.24001C248.878 2.24001 249.345 2.25335 249.692 2.28001H251.052H252.172H252.652C253.345 2.28001 253.812 2.38668 254.052 2.60001C254.345 2.81335 254.492 3.28001 254.492 4.00002L254.452 4.40001L254.412 5.04001C254.385 5.20001 254.372 5.41335 254.372 5.68002V6.16001V6.48001L254.452 6.88001V8.16002C254.425 8.61335 254.412 9.38668 254.412 10.48V13.44C254.385 14.1333 254.372 15.1067 254.372 16.36V18.68V20.04V26.36L254.212 27.88C254.105 28.4933 253.892 28.8667 253.572 29L252.892 29.04L252.212 29H250.412H248.052H245.612H245.012C244.478 29.0533 243.958 28.9867 243.452 28.8C243.212 28.6933 242.945 28.52 242.652 28.28L238.572 22.56C238.572 22.5333 238.278 22.04 237.692 21.08C237.478 20.76 237.278 20.48 237.092 20.24C237.038 20.1333 236.972 20.0533 236.892 20C236.838 19.92 236.798 19.88 236.772 19.88C236.532 19.88 236.412 19.9867 236.412 20.2V21.08C236.385 21.3467 236.372 21.7867 236.372 22.4V23.96V25.48C236.318 25.8 236.292 26.2 236.292 26.68V27.48V28.08L236.332 28.28C236.332 28.4933 236.225 28.6267 236.012 28.68C235.878 28.7867 235.665 28.8133 235.372 28.76C234.465 28.8133 233.745 28.8667 233.212 28.92C232.892 28.9467 232.332 28.9867 231.532 29.04C230.732 29.0933 229.985 29.12 229.292 29.12Z"
     stroke="white"
     stroke-width="2"
     stroke-linejoin="round"
     id="path989" />
  <path
     d="M279.733 29.32C279.573 29.1333 279.493 29.0267 279.493 29L275.293 24.16C275.213 24.08 275.08 23.92 274.893 23.68C274.707 23.44 274.533 23.24 274.373 23.08L273.773 22.48C273.587 22.3467 273.467 22.28 273.413 22.28C273.307 22.28 273.227 22.32 273.173 22.4C273.12 22.4534 273.093 22.52 273.093 22.6V23.16V24.04C273.093 24.4667 273.067 24.8 273.013 25.04V26.08C272.987 26.32 272.973 26.6133 272.973 26.96V27.48V28.08V28.24C272.973 28.5067 272.88 28.6533 272.693 28.68C272.56 28.7867 272.36 28.8133 272.093 28.76C270.707 28.8133 269.707 28.84 269.093 28.84L263.973 28.8H263.293H262.493C262.147 28.8 261.907 28.7867 261.773 28.76H261.493L259.693 28.6L259.573 28.28C259.547 28.28 259.533 28.1333 259.533 27.84C259.533 27.3867 259.52 27 259.493 26.68V25.08C259.44 24.68 259.413 24.08 259.413 23.28L259.333 20.2C259.307 19.5333 259.24 18.5333 259.133 17.2L259.093 16.2C259.04 15.2933 259.013 14.6267 259.013 14.2V13.8C259.067 13.64 259.093 13.4 259.093 13.08C259.12 12.7333 259.133 12.3333 259.133 11.88L259.093 11.08C259.093 10.8933 259.08 10.7467 259.053 10.64C259.027 10.5067 259.013 10.4133 259.013 10.36C259.013 10.3067 259.027 10.1467 259.053 9.88001C259.08 9.61335 259.093 9.34668 259.093 9.08001C259.12 8.76001 259.133 8.36001 259.133 7.88002V7.28001V6.48001C259.107 6.02668 259.093 5.36001 259.093 4.48001C259.04 4.29335 259.013 4.02668 259.013 3.68002V3.28001C258.933 2.66668 259.253 2.30668 259.973 2.20001C260.187 2.12001 260.493 2.08001 260.893 2.08001H261.773H266.213H269.493H271.613H272.893C273.267 2.08001 273.493 2.30668 273.573 2.76001C273.6 2.84001 273.613 3.01335 273.613 3.28001V3.88001C273.613 4.54668 273.587 5.54668 273.533 6.88001L273.493 7.96001C273.44 8.65335 273.413 9.13335 273.413 9.40001C273.733 9.40001 274.027 9.32002 274.293 9.16002C274.48 8.97335 274.573 8.88001 274.573 8.88001C274.627 8.85335 274.68 8.81335 274.733 8.76001C274.813 8.68001 274.88 8.61335 274.933 8.56001C275.04 8.50668 275.293 8.28002 275.693 7.88002C276.36 7.21335 277.453 6.18668 278.973 4.80001C280.44 3.41335 281.587 2.40001 282.413 1.76001C282.92 1.41335 283.24 1.22668 283.373 1.20001C283.427 1.20001 283.52 1.26668 283.653 1.40001C283.787 1.53335 283.88 1.62668 283.933 1.68001C283.933 1.68001 284.053 1.80001 284.293 2.04001C284.347 2.17335 284.413 2.25335 284.493 2.28001L284.733 2.56001C284.973 2.74668 285.133 2.90668 285.213 3.04001L285.693 3.48001C285.773 3.56001 285.84 3.64001 285.893 3.72001C285.947 3.77335 285.987 3.81335 286.013 3.84002C286.173 4.10668 286.6 4.68001 287.293 5.56001C287.827 6.17335 288.227 6.77335 288.493 7.36002V7.44001C288.493 7.81335 288.12 8.40001 287.373 9.20001L286.493 10.08C286.173 10.3733 285.947 10.6 285.813 10.76C285.787 10.76 285.747 10.7867 285.693 10.84C285.64 10.8933 285.573 10.96 285.493 11.04L283.893 12.28C283.893 12.28 283.627 12.5467 283.093 13.08L282.373 13.64C282.32 13.6667 282.213 13.7467 282.053 13.88C281.92 13.9867 281.8 14.0533 281.693 14.08C281.613 14.1333 281.52 14.2 281.413 14.28C281.307 14.3333 281.24 14.3867 281.213 14.44C281.16 14.4667 281.133 14.5867 281.133 14.8C281.133 15.2267 281.347 15.6267 281.773 16C281.96 16.2133 282.147 16.3733 282.333 16.48L282.893 16.96C283.453 17.52 283.733 17.8 283.733 17.8C284.267 18.2533 285.227 19.12 286.613 20.4C287.68 21.36 288.52 22.2267 289.133 23C289.4 23.4 289.533 23.6933 289.533 23.88C289.533 24.04 289.507 24.1733 289.453 24.28C289.427 24.3867 289.347 24.5067 289.213 24.64C288.68 25.0933 288.187 25.4267 287.733 25.64C287.28 25.88 286.84 26.1867 286.413 26.56C285.987 26.9067 285.573 27.2533 285.173 27.6C284.827 27.92 284.427 28.2133 283.973 28.48L283.173 28.88C283.173 28.88 283.053 28.96 282.813 29.12C282.573 29.28 282.4 29.4133 282.293 29.52C281.893 29.76 281.48 29.88 281.053 29.88C280.813 29.88 280.56 29.8267 280.293 29.72L279.733 29.32Z"
     stroke="white"
     stroke-width="2"
     stroke-linejoin="round"
     id="path991" />
  <path
     d="M296.514 29C296.381 29 296.181 28.9867 295.914 28.96C295.647 28.9067 295.327 28.8667 294.954 28.84L294.114 28.64C293.981 28.6133 293.874 28.5867 293.794 28.56C293.741 28.5067 293.727 28.4667 293.754 28.44C293.754 27.7467 293.714 26.8267 293.634 25.68C293.634 25.28 293.621 24.9333 293.594 24.64C293.567 24.32 293.541 24.0533 293.514 23.84L293.434 22.12C293.434 21.6667 293.407 21.0933 293.354 20.4L293.314 19.16C293.314 18.1467 293.301 17.36 293.274 16.8C293.247 16.24 293.234 15.0667 293.234 13.28C293.234 11.6 293.247 9.86668 293.274 8.08002C293.301 6.29335 293.381 4.60001 293.514 3.00001C293.514 2.70668 293.834 2.46668 294.474 2.28001C294.874 2.22668 295.541 2.20001 296.474 2.20001C298.634 2.20001 300.221 2.16001 301.234 2.08001C304.381 2.02668 306.754 2.00002 308.354 2.00002H310.114C312.301 2.05335 313.981 2.13335 315.154 2.24001C315.581 2.24001 315.887 2.74668 316.074 3.76001C316.154 3.94668 316.247 4.42668 316.354 5.20001C316.434 5.60001 316.541 6.09335 316.674 6.68001C316.701 6.84001 316.701 7.00001 316.674 7.16002C316.674 7.29335 316.674 7.37335 316.674 7.40001C316.647 7.66668 316.501 7.80001 316.234 7.80001C316.127 7.77335 315.967 7.76001 315.754 7.76001C314.634 7.76001 313.261 7.85335 311.634 8.04001L309.514 8.20001C308.634 8.30668 307.941 8.37335 307.434 8.40001C307.354 8.40001 307.247 8.56001 307.114 8.88001C307.007 9.22668 306.887 10.0267 306.754 11.28L306.674 12.28C306.674 12.6267 306.714 12.8533 306.794 12.96C306.874 13.04 307.047 13.08 307.314 13.08H310.874C311.914 13.08 313.101 13.1467 314.434 13.28H314.914C315.261 13.36 315.474 13.4933 315.554 13.68C315.661 13.84 315.727 14.0133 315.754 14.2L315.914 17.76V17.88C315.914 18.3333 315.434 18.6 314.474 18.68C313.914 18.8133 312.847 18.88 311.274 18.88C309.914 18.88 309.034 18.8667 308.634 18.84C307.861 18.84 307.394 18.8533 307.234 18.88C306.941 18.96 306.754 19.12 306.674 19.36C306.594 19.5733 306.554 19.9467 306.554 20.48C306.554 20.8267 306.527 21.32 306.474 21.96C306.447 22.28 306.434 22.7867 306.434 23.48C308.167 23.48 309.447 23.4533 310.274 23.4C311.181 23.32 312.461 23.28 314.114 23.28C314.221 23.28 314.327 23.3733 314.434 23.56C314.567 23.8267 314.781 24.4267 315.074 25.36C315.234 25.8933 315.394 26.56 315.554 27.36C315.607 27.5467 315.634 27.7467 315.634 27.96C315.634 28.52 315.367 28.8 314.834 28.8C314.141 28.8 313.207 28.8267 312.034 28.88C311.421 28.9333 310.461 28.96 309.154 28.96C306.354 28.96 304.247 28.9733 302.834 29H296.514Z"
     stroke="white"
     stroke-width="2"
     stroke-linejoin="round"
     id="path993" />
  <path
     d="M342.448 30.36C342.342 30.36 342.248 30.3467 342.168 30.32C341.768 30.08 341.435 29.8133 341.168 29.52C341.088 29.3867 341.035 29.32 341.008 29.32C340.982 29.2667 340.942 29.24 340.888 29.24L340.808 29.2C340.702 29.0933 340.648 29.04 340.648 29.04L337.248 24C337.088 23.6533 336.862 23.28 336.568 22.88C336.382 22.6933 336.222 22.4933 336.088 22.28C335.982 22.12 335.875 22.04 335.768 22.04C335.688 22.04 335.622 22.08 335.568 22.16C335.542 22.24 335.515 22.3467 335.488 22.48C335.408 23.2 335.368 24.1733 335.368 25.4C335.368 26.5734 335.302 27.52 335.168 28.24C335.088 28.5867 334.968 28.76 334.808 28.76H334.568C334.515 28.7333 334.462 28.72 334.408 28.72C334.382 28.6933 334.368 28.68 334.368 28.68C333.435 28.76 332.035 28.8533 330.168 28.96C328.355 29.0667 326.968 29.12 326.008 29.12C325.742 29.12 325.528 29.0933 325.368 29.04H324.488H323.768H323.408L321.968 28.56L321.848 28.24C321.848 28.2134 321.835 28.16 321.808 28.08C321.808 28 321.808 27.8933 321.808 27.76C321.808 27.6 321.782 27.3067 321.728 26.88C321.595 25.2533 321.542 24.6133 321.568 24.96C321.515 24.2667 321.422 23.0667 321.288 21.36L321.168 19.88C321.168 19.4 321.155 18.9733 321.128 18.6C321.102 18.2267 321.075 17.9067 321.048 17.64L320.968 16.76C320.888 15.6667 320.848 14.64 320.848 13.68C320.848 13.6533 320.848 13.6133 320.848 13.56C320.875 13.5067 320.888 13.4 320.888 13.24C320.942 13.08 320.968 12.8267 320.968 12.48L321.008 11.76L321.048 11.28C321.048 10.72 321.022 9.90668 320.968 8.84002C320.862 8.17335 320.808 7.32001 320.808 6.28001C320.808 4.78668 320.902 3.69335 321.088 3.00001C321.328 2.04001 321.728 1.56001 322.288 1.56001C325.302 1.56001 328.368 1.60001 331.488 1.68001C332.182 1.68001 333.222 1.70668 334.608 1.76001L336.168 1.80001C338.302 1.85335 339.782 1.88001 340.608 1.88001C344.048 2.04001 346.648 2.90668 348.408 4.48001C349.208 5.14668 349.795 5.94668 350.168 6.88001C350.568 7.81335 350.768 8.81335 350.768 9.88001C350.768 11.1067 350.542 12.24 350.088 13.28C349.715 14.1067 349.182 14.8667 348.488 15.56C347.822 16.2267 347.062 16.76 346.208 17.16C346.368 17.24 346.582 17.4133 346.848 17.68C346.955 17.8133 347.142 17.9867 347.408 18.2L347.968 18.6C348.048 18.7333 348.142 18.8667 348.248 19C348.355 19.1067 348.462 19.2267 348.568 19.36L350.448 21.68C351.302 22.7733 351.848 23.5733 352.088 24.08C352.275 24.4267 352.368 24.6933 352.368 24.88C352.368 25.1467 352.262 25.3867 352.048 25.6C351.835 25.8133 351.515 26.08 351.088 26.4C350.768 26.64 350.395 26.8667 349.968 27.08C349.568 27.2934 349.262 27.4933 349.048 27.68L347.568 28.48C347.035 28.7733 346.462 29.0267 345.848 29.24C345.822 29.24 345.782 29.2533 345.728 29.28C345.702 29.3067 345.648 29.3333 345.568 29.36C345.408 29.44 344.968 29.5867 344.248 29.8C344.115 29.88 343.888 29.9467 343.568 30C343.488 30.0533 343.395 30.0933 343.288 30.12C343.182 30.1467 343.102 30.16 343.048 30.16H342.848C342.822 30.2933 342.768 30.36 342.688 30.36H342.568H342.448ZM335.888 16.24C336.715 16.24 337.368 15.8267 337.848 15C338.302 14.2533 338.555 13.4 338.608 12.44C338.662 11.88 338.688 11.2133 338.688 10.44V10C338.688 9.38668 338.582 8.74668 338.368 8.08002C338.155 7.22668 337.715 6.61335 337.048 6.24002C336.755 6.00001 336.368 5.88001 335.888 5.88001C335.755 5.88001 335.648 6.04001 335.568 6.36001C335.328 6.94668 335.195 7.88001 335.168 9.16002C335.062 9.69335 335.008 10.32 335.008 11.04L334.968 12.24C334.915 13.7867 334.888 15.0667 334.888 16.08C334.888 16.1067 334.902 16.1333 334.928 16.16C334.955 16.1867 334.982 16.2 335.008 16.2L335.288 16.24H335.888Z"
     stroke="white"
     stroke-width="2"
     stroke-linejoin="round"
     id="path995" />
  <path
     style="fill:#f5cb29;fill-opacity:1;stroke-width:0.251599"
     d="m 48.660214,28.476155 c -0.27555,-0.295767 -1.504478,-2.020084 -2.730951,-3.831814 -2.406014,-3.554131 -2.98695,-4.054826 -3.962788,-3.415433 -0.488572,0.320125 -0.632193,0.687966 -0.765104,1.959591 -0.08999,0.861017 -0.163625,2.210897 -0.163625,2.999732 v 1.434246 l -2.830491,0.163096 c -3.751777,0.216184 -7.792123,0.202719 -8.151213,-0.02717 C 29.377924,27.324287 28.475832,5.0552 29.06597,3.317439 l 0.205728,-0.605802 9.594112,0.156768 c 11.757543,0.192119 13.316644,0.439056 15.637452,2.476728 2.85333,2.505228 2.527869,7.601803 -0.636574,9.968463 -1.769402,1.323321 -2.010179,1.543318 -2.010179,1.836695 0,0.15104 0.708809,0.972991 1.575131,1.826556 0.866324,0.853566 2.293963,2.509418 3.172535,3.679671 l 1.597403,2.127733 -0.719443,0.579172 c -1.196978,0.963601 -6.184649,3.368684 -7.287773,3.514204 -0.83987,0.110792 -1.126874,0.03568 -1.534148,-0.401472 z M 44.941556,16.373499 C 46.121601,15.229754 46.573215,13.73707 46.571524,10.986097 46.569824,8.147112 46.245635,6.942217 45.203188,5.899771 44.263019,4.959601 43.26014,4.6331 42.323309,4.962187 c -1.037342,0.364393 -1.31263,1.656587 -1.469069,6.895771 -0.127973,4.285861 -0.102088,4.701102 0.319321,5.122512 0.750622,0.750622 2.689564,0.438286 3.767995,-0.606971 z"
     id="path1007" />
  <path
     style="fill:#f5cb29;fill-opacity:1;stroke-width:0.251599"
     d="M 92.711333,27.777704 C 92.245844,27.686281 92.15821,27.442906 92.021555,25.862074 91.746797,22.683653 91.530428,8.290055 91.719733,5.783795 l 0.182534,-2.416632 8.093326,-0.148266 c 4.451327,-0.08155 8.996887,-0.06965 10.101237,0.02644 l 2.00791,0.174706 0.32754,1.480472 c 0.18014,0.814259 0.27612,1.531886 0.21328,1.594726 -0.0628,0.06284 -1.90633,0.265492 -4.09664,0.450339 -2.19031,0.184847 -4.16519,0.407511 -4.38861,0.494808 -0.67016,0.261854 -1.02991,1.393811 -1.16519,3.666311 -0.17073,2.867964 -0.0357,3.006307 2.93522,3.006307 1.21465,0 3.07469,0.07322 4.13341,0.162719 l 1.92496,0.162718 v 1.576371 1.576371 l -4.01907,0.085 c -5.18116,0.109584 -5.12649,0.06954 -5.24951,3.844615 -0.10908,3.347405 -0.25844,3.249172 4.58245,3.013824 l 3.59509,-0.174781 0.32082,1.229458 c 0.17645,0.676202 0.36743,1.410174 0.42439,1.631048 0.0885,0.34328 -0.3081,0.42531 -2.7316,0.564954 -3.01848,0.173928 -15.30503,0.168161 -16.199947,-0.0076 z"
     id="path1584" />
  <path
     style="fill:#f5cb29;fill-opacity:1;stroke-width:0.251599"
     d="m 171.55571,27.972562 c -0.93357,-0.10314 -1.76017,-0.250302 -1.83689,-0.327029 -0.0767,-0.07673 -0.31433,-3.181237 -0.52799,-6.898914 -0.36669,-6.38013 -0.34293,-16.586554 0.0401,-17.206238 0.1585,-0.25647 10.60445,-0.35956 11.25207,-0.111046 0.28563,0.109604 0.33123,0.787298 0.24172,3.592099 -0.0883,2.768005 -0.0397,3.515658 0.24424,3.751277 0.42717,0.354522 5.02634,0.789215 5.70274,0.538999 0.42956,-0.158905 0.49742,-0.563463 0.65999,-3.934615 l 0.18119,-3.7575 2.65874,-0.162676 c 1.4623,-0.08947 4.11999,-0.162676 5.90598,-0.162676 h 3.24724 l -0.14334,6.604478 c -0.0788,3.632462 -0.31065,8.925479 -0.51513,11.76226 -0.20449,2.83678 -0.37344,5.412526 -0.37546,5.72388 l -0.004,0.566098 h -5.15778 c -4.76342,0 -5.15778,-0.03399 -5.15778,-0.444592 0,-2.33324 -0.58837,-8.54219 -0.8314,-8.77365 -0.16544,-0.15756 -1.42457,-0.340958 -2.79807,-0.40755 -2.35974,-0.114409 -2.52949,-0.08887 -3.08209,0.463736 -0.56228,0.562279 -0.58497,0.737943 -0.58867,4.558936 -0.002,2.185767 -0.087,4.103903 -0.1887,4.262523 -0.23424,0.365467 -6.57046,0.62255 -8.92701,0.3622 z"
     id="path1586" />
  <path
     style="fill:#f5cb29;fill-opacity:1;stroke-width:0.251599"
     d="M 226.33345,27.778788 C 225.94843,27.50345 225.48664,17.549364 225.48754,9.544802 l 7e-4,-6.203598 2.32729,-0.140803 c 1.28002,-0.07744 3.3665,-0.199418 4.63663,-0.271061 l 2.30933,-0.130259 0.74258,0.939479 c 0.40842,0.516713 1.94753,2.779297 3.42026,5.027964 2.20585,3.368069 2.78207,4.088487 3.27016,4.088487 1.08867,0 1.2243,-0.50476 1.35534,-5.043824 0.11804,-4.088966 0.14628,-4.278917 0.65456,-4.403962 0.29215,-0.07188 2.45592,-0.0984 4.80837,-0.05893 l 4.27719,0.07175 v 5.031983 c 0,2.76759 -0.0283,8.287046 -0.0629,12.265458 l -0.0629,7.233475 h -4.38241 c -2.41032,0 -4.56839,-0.07137 -4.79571,-0.158598 -0.41718,-0.16009 -3.78389,-4.728175 -5.41899,-7.352714 -0.75496,-1.211816 -1.00911,-1.432388 -1.73028,-1.501684 -0.46494,-0.04468 -0.97247,0.04548 -1.12784,0.200355 -0.17359,0.173018 -0.33101,1.821131 -0.40831,4.274706 -0.0692,2.196218 -0.20325,4.070504 -0.29792,4.165079 -0.25406,0.253825 -8.33339,0.440854 -8.66924,0.200685 z"
     id="path1588" />
  <path
     style="fill:#f5cb29;fill-opacity:1;stroke-width:0.251599"
     d="m 295.51189,27.775518 c -0.45781,-0.08901 -0.58318,-0.346642 -0.74852,-1.538231 -0.23202,-1.672113 -0.28466,-22.574332 -0.0574,-22.802566 0.21544,-0.216392 19.76607,-0.305585 19.9811,-0.09116 0.14331,0.142915 0.88585,3.214165 0.77961,3.224575 -0.0174,0.0017 -1.8686,0.165985 -4.11368,0.365058 -2.24508,0.199073 -4.3075,0.48265 -4.58314,0.63017 -0.57442,0.30742 -0.9141,1.429013 -1.15645,3.818473 -0.25866,2.550353 -0.14389,2.617634 4.77158,2.797041 2.17826,0.0795 4.0174,0.20148 4.08698,0.27106 0.0696,0.06958 0.18892,0.814772 0.2652,1.655981 l 0.13869,1.529472 -3.49443,0.0014 c -3.72102,0.0015 -5.2375,0.259607 -5.59974,0.953103 -0.12333,0.236109 -0.30346,1.511874 -0.40029,2.835033 -0.23576,3.221575 -0.36804,3.129432 4.49244,3.129432 h 3.78662 l 0.41725,1.535427 0.41724,1.535428 -3.02898,0.162867 c -3.24252,0.174349 -15.04044,0.16505 -15.95405,-0.01257 z"
     id="path1590" />
</svg>
